<svg xmlns="http://www.w3.org/2000/svg" width="21.816" height="21.816" viewBox="0 0 21.816 21.816">
  <path id="Path_37042" data-name="Path 37042" d="M12.108,2.765A9.343,9.343,0,0,0,4.142,16.99l.205.334-1.658,3.87a.252.252,0,0,0,.331.331l3.87-1.658.333.205A9.343,9.343,0,1,0,12.108,2.765ZM1.251,12.107a10.853,10.853,0,1,1,5.523,9.458L3.617,22.918A1.768,1.768,0,0,1,1.3,20.6L2.65,17.441a10.81,10.81,0,0,1-1.4-5.334Zm6.06-2.02a.757.757,0,0,1,.757-.757H11.1a.757.757,0,0,1,0,1.515H8.068A.757.757,0,0,1,7.311,10.087Zm0,4.04a.757.757,0,0,1,.757-.757h8.079a.757.757,0,1,1,0,1.515H8.068A.757.757,0,0,1,7.311,14.127Z" transform="translate(-1.148 -1.25)" fill="#4a4b4d" fill-rule="evenodd"/>
</svg>
